
        <svg xmlns="http://www.w3.org/2000/svg" xmlns:xlink="http://www.w3.org/1999/xlink" version="1.1" width="3162.3083859332733" 
        height="746.3726534961884" viewBox="0 0 3162.3083859332733 746.3726534961884">
			
			<g transform="scale(8.115419296663662) translate(10, 10)">
				<defs id="SvgjsDefs1412"></defs><g id="SvgjsG1413" featureKey="symbolFeature-0" transform="matrix(0.9469696969696971,0,0,0.9469696969696971,-5.6818181818181825,-12.310606060606062)" fill="#fd7014"><path xmlns="http://www.w3.org/2000/svg" d="M90,81H51.9c8.5-8,23.6-8,34.1-8V13H76c-9.5,0-20.3,0.9-26,8c-5.7-7.1-16.6-8-26.1-8H14v60c10.6,0,25.7,0,34.1,8H10V25H6v60  h38.4c0.8,2.3,3,4,5.6,4s4.8-1.7,5.6-4H94V25h-4V81z M52,21.7c5.3-6.1,15.4-6.7,24-6.7l8,0v56c-10,0-23.4,0.5-32,7.2V21.7z M48,78.2  C39.4,71.5,26,71,16,71V15l8,0c8.6,0,18.7,0.7,24,6.7V78.2z"></path></g><g id="SvgjsG1414" featureKey="nameFeature-0" transform="matrix(1.5926101199065723,0,0,1.5926101199065723,97.83994357602224,-4.837234558018704)" fill="#111111"><path d="M21.4 40 l-18.16 0 l0 -28.8 l2.72 0 l0 26.48 l15.44 0 l0 2.32 z M38.68000000000001 32.36 l0 -3.24 c-2.04 0.84 -4.12 1 -6.2 1.16 c-3.64 0.28 -5.84 1.6 -5.84 4.4 c0 2.52 2.2 3.72 4.48 3.72 c3.8 0 7.56 -1.84 7.56 -6.04 z M31.32 28.36 l3.32 -0.44 c0.88 -0.08 2.36 -0.32 3.16 -0.68 s0.88 -1.44 0.88 -2.16 c0 -2.44 -1.44 -4.2 -5.16 -4.2 c-3.32 0 -5.6 1.08 -6.04 4.68 l-2.44 0 c0.36 -4.88 4 -6.84 8.52 -6.84 c4.2 0 7.52 1.64 7.52 6.44 l0 11.28 c0 1.88 0.48 2.32 2.52 1.6 l0 1.88 c-0.36 0.12 -1.2 0.4 -1.88 0.4 c-0.4 0 -0.72 -0.04 -1.08 -0.12 c-1.6 -0.24 -1.88 -1.64 -1.92 -3.08 c-2 2.24 -4.72 3.44 -7.72 3.44 c-3.64 0 -6.92 -1.96 -6.92 -5.96 c0 -3.48 2.4 -5.6 7.24 -6.24 z M50.040000000000006 29.560000000000002 c0 5 2.48 8.84 7 8.84 c4.04 0 7.04 -2.92 7.08 -8.12 c0.2 -5.2 -2.12 -9.4 -7.08 -9.4 c-4.36 0 -7 4 -7 8.68 z M50.040000000000006 36.36 l0 3.64 l-2.4 0 l0 -28.8 l2.4 0 l0 11.4 c1.52 -2.52 4.48 -3.88 7.4 -3.88 c6.32 0 9.24 5.16 9.24 10.96 c0 6.12 -2.68 10.88 -9.36 10.88 c-2.64 0 -5.8 -1.48 -7.2 -4.2 l-0.08 0 z M86 26.240000000000002 l0 11.44 l6.92 0 c6 0 8.8 -0.8 8.8 -5.8 c0 -4.76 -3.36 -5.64 -8.48 -5.64 l-7.24 0 z M86 13.52 l0 10.4 l6.88 0 c5.68 0 7.52 -2 7.52 -5.48 c0 -3.6 -2.16 -4.92 -8.12 -4.92 l-6.28 0 z M95.04 40 l-11.76 0 l0 -28.8 l10.4 0 c6.76 0 9.44 2.92 9.44 7.24 c0 4 -2.28 5.8 -4.6 6.2 l0 0.08 c3.96 0.6 5.92 3.36 5.92 7.16 c0 6 -3.92 8.12 -9.4 8.12 z M117.84 40.56 c-5.28 -0.08 -9.6 -3.68 -9.6 -10.92 c0 -6.04 3.2 -10.92 9.6 -10.92 c6.48 0 9.6 4.84 9.6 10.92 c0 6.56 -3.8 10.92 -9.6 10.92 z M124.88 29.64 c-0.04 -4.88 -1.96 -8.76 -7.04 -8.76 c-5.04 0 -7.04 4.28 -7.04 8.76 c0 5.16 2.44 8.76 7.04 8.76 c5.04 0 7.04 -4.32 7.04 -8.76 z M140.08 40.56 c-5.28 -0.08 -9.6 -3.68 -9.6 -10.92 c0 -6.04 3.2 -10.92 9.6 -10.92 c6.48 0 9.6 4.84 9.6 10.92 c0 6.56 -3.8 10.92 -9.6 10.92 z M147.12 29.64 c-0.04 -4.88 -1.96 -8.76 -7.04 -8.76 c-5.04 0 -7.04 4.28 -7.04 8.76 c0 5.16 2.44 8.76 7.04 8.76 c5.04 0 7.04 -4.32 7.04 -8.76 z M156.32000000000002 40 l-2.4 0 l0 -28.8 l2.4 0 l0 17.92 l10.16 -9.84 l3.28 0 l-7.76 7.48 l8.68 13.24 l-2.68 0 l-7.76 -11.56 l-3.92 3.72 l0 7.84 z"></path></g>
			</g>
		</svg>
	